<svg width="47" height="47" viewBox="0 0 47 47" fill="none" xmlns="http://www.w3.org/2000/svg">
<path d="M34.175 36.2083H29.0917L23.5 26.55L17.9083 36.2083H12.825L20.9583 23.5L12.825 10.7917H17.9083L23.5 20.45L29.0917 10.7917H34.175L26.0417 23.5M41.2917 0.625H5.70833C2.88708 0.625 0.625 2.88708 0.625 5.70833V41.2917C0.625 42.6399 1.16056 43.9328 2.11387 44.8861C3.06718 45.8394 4.36015 46.375 5.70833 46.375H41.2917C42.6399 46.375 43.9328 45.8394 44.8861 44.8861C45.8394 43.9328 46.375 42.6399 46.375 41.2917V5.70833C46.375 2.88708 44.0875 0.625 41.2917 0.625Z" fill="#D92B3F"/>
</svg>
