<svg width="47" height="46" viewBox="0 0 47 46" fill="none" xmlns="http://www.w3.org/2000/svg">
<path d="M41.2917 0.5H5.70833C2.9125 0.5 0.625 2.75 0.625 5.5V40.5C0.625 43.25 2.9125 45.5 5.70833 45.5H41.2917C44.0875 45.5 46.375 43.25 46.375 40.5V5.5C46.375 2.75 44.0875 0.5 41.2917 0.5ZM17.1458 21.75C17.1458 23.75 15.3667 25.5 13.3333 25.5H10.7917V30.5H6.97917V15.5H13.3333C15.3667 15.5 17.1458 17.25 17.1458 19.25V21.75ZM29.8542 26.75C29.8542 28.75 28.075 30.5 26.0417 30.5H19.6875V15.5H26.0417C28.075 15.5 29.8542 17.25 29.8542 19.25V26.75ZM40.0208 19.25H36.2083V21.75H40.0208V25.5H36.2083V30.5H32.3958V15.5H40.0208V19.25ZM23.5 19.25H26.0417V26.75H23.5V19.25ZM10.7917 19.25H13.3333V21.75H10.7917V19.25Z" fill="#D92B3F"/>
</svg>
