<svg width="1213" height="808" viewBox="0 0 1213 808" fill="none" xmlns="http://www.w3.org/2000/svg">
<path fill-rule="evenodd" clip-rule="evenodd" d="M1013.73 707.01H973.602L919.026 634.016C911.198 634.593 903.291 634.887 895.316 634.887C719.859 634.887 577.623 492.784 577.623 317.491C577.623 277.845 584.899 239.896 598.19 204.905L584.031 185.968L670.783 69.8296C679.231 58.4683 676.631 42.6887 665.097 34.4833L623.021 4.81763C611.324 -3.38777 595.078 -0.863029 586.63 10.4983L519.861 99.9687L452.929 10.4983C444.481 -0.863029 428.235 -3.22997 416.539 4.81763L374.462 34.4833C362.765 42.6887 360.329 58.4683 368.776 69.8296L455.528 185.968L66.1198 707.01H25.993C11.6969 707.01 0 718.372 0 732.258V782.753C0 796.639 11.6969 808 25.993 808H1013.73C1028.02 808 1039.72 796.639 1039.72 782.753V732.258C1039.72 718.372 1028.02 707.01 1013.73 707.01ZM519.861 454.537L708.96 707.01H330.761L519.861 454.537Z" fill="#424140"/>
<path d="M1094.67 443.213L1197.77 545.982C1218.08 566.319 1218.07 599.375 1197.75 619.689C1177.45 639.979 1144.38 640.002 1124.01 619.689L1021.11 516.689C1020.83 516.417 1020.59 516.113 1020.36 515.807C1020.26 515.679 1020.15 515.55 1020.05 515.423C1019.94 515.288 1019.82 515.155 1019.7 515.027C1034.1 505.747 1047.66 494.678 1060.15 482.19C1072.65 469.702 1083.73 456.175 1092.99 441.943L1093.24 442.11C1093.72 442.429 1094.22 442.771 1094.67 443.213Z" fill="#424140"/>
<path d="M755.469 276.41C773.121 267.165 794.101 296.181 799.195 317.095C812.664 372.295 857.821 399.674 883.156 415.035C895.809 422.707 903.517 427.381 899.866 431.025C888.717 442.151 781.497 423.557 752.014 335.597C745.418 316.252 741.478 283.543 755.469 276.41Z" fill="#424140"/>
<path fill-rule="evenodd" clip-rule="evenodd" d="M1045.46 127.969C951.789 34.4109 799.409 34.4109 705.728 127.993C611.955 221.551 611.944 373.904 705.659 467.497C799.375 561.044 951.789 561.044 1045.46 467.486C1139.13 373.904 1139.12 221.54 1045.46 127.969ZM749.813 423.43C680.463 354.144 680.486 241.345 749.837 172.129C819.187 102.854 932.023 102.854 1001.35 172.094C1070.65 241.345 1070.63 354.017 1001.35 423.407C932.011 492.474 819.187 492.728 749.813 423.43Z" fill="#424140"/>
</svg>
